<svg width="140" height="41" viewBox="0 0 140 41" fill="none" xmlns="http://www.w3.org/2000/svg">
<path d="M20.479 27.7495C22.4717 27.7495 24.2 27.048 25.664 25.645L26.64 26.926C24.8913 28.5323 22.8173 29.3355 20.418 29.3355C18.466 29.3355 16.7987 28.6645 15.416 27.3225C14.0333 25.9602 13.342 24.059 13.342 21.619C13.342 19.2603 14.0232 17.2982 15.3855 15.7325C16.7478 14.1465 18.6388 13.3535 21.0585 13.3535C22.6445 13.3535 24.0068 13.8008 25.1455 14.6955C26.3045 15.5698 26.884 16.8 26.884 18.386C26.884 19.5857 26.4977 20.5312 25.725 21.2225C24.9523 21.9138 23.9357 22.2595 22.675 22.2595H15.111C15.2533 23.9268 15.8023 25.2587 16.758 26.255C17.734 27.2513 18.9743 27.7495 20.479 27.7495ZM20.9365 14.8175C19.3098 14.8175 17.9577 15.3563 16.88 16.434C15.8227 17.5117 15.233 18.9757 15.111 20.826H22.492C23.285 20.826 23.9357 20.6125 24.444 20.1855C24.9523 19.7382 25.2065 19.0977 25.2065 18.264C25.2065 17.2473 24.7998 16.4238 23.9865 15.7935C23.1935 15.1428 22.1768 14.8175 20.9365 14.8175ZM48.8531 13.3535C50.3374 13.3535 51.4761 13.7602 52.2691 14.5735C53.0621 15.3868 53.4586 16.5662 53.4586 18.1115V29H51.6896V18.569C51.6896 17.3287 51.4456 16.4137 50.9576 15.824C50.4696 15.2343 49.6969 14.9395 48.6396 14.9395C46.7892 14.9395 44.8677 15.8647 42.8751 17.715V18.081V29H41.1366V18.447C41.1366 16.1087 40.1097 14.9395 38.0561 14.9395C36.2871 14.9395 34.3351 15.8952 32.2001 17.8065V29H30.4311V13.75H32.1696V16.2815C34.1826 14.3295 36.2057 13.3535 38.2391 13.3535C40.5977 13.3535 42.0617 14.3092 42.6311 16.2205C44.6237 14.3092 46.6977 13.3535 48.8531 13.3535ZM76.3448 13.3535C77.8291 13.3535 78.9678 13.7602 79.7608 14.5735C80.5538 15.3868 80.9503 16.5662 80.9503 18.1115V29H79.1813V18.569C79.1813 17.3287 78.9373 16.4137 78.4493 15.824C77.9613 15.2343 77.1886 14.9395 76.1313 14.9395C74.2809 14.9395 72.3594 15.8647 70.3668 17.715V18.081V29H68.6283V18.447C68.6283 16.1087 67.6014 14.9395 65.5478 14.9395C63.7788 14.9395 61.8268 15.8952 59.6918 17.8065V29H57.9228V13.75H59.6613V16.2815C61.6743 14.3295 63.6974 13.3535 65.7308 13.3535C68.0894 13.3535 69.5534 14.3092 70.1228 16.2205C72.1154 14.3092 74.1894 13.3535 76.3448 13.3535ZM91.606 27.7495C93.5986 27.7495 95.327 27.048 96.791 25.645L97.767 26.926C96.0183 28.5323 93.9443 29.3355 91.545 29.3355C89.593 29.3355 87.9256 28.6645 86.543 27.3225C85.1603 25.9602 84.469 24.059 84.469 21.619C84.469 19.2603 85.1501 17.2982 86.5125 15.7325C87.8748 14.1465 89.7658 13.3535 92.1855 13.3535C93.7715 13.3535 95.1338 13.8008 96.2725 14.6955C97.4315 15.5698 98.011 16.8 98.011 18.386C98.011 19.5857 97.6246 20.5312 96.852 21.2225C96.0793 21.9138 95.0626 22.2595 93.802 22.2595H86.238C86.3803 23.9268 86.9293 25.2587 87.885 26.255C88.861 27.2513 90.1013 27.7495 91.606 27.7495ZM92.0635 14.8175C90.4368 14.8175 89.0846 15.3563 88.007 16.434C86.9496 17.5117 86.36 18.9757 86.238 20.826H93.619C94.412 20.826 95.0626 20.6125 95.571 20.1855C96.0793 19.7382 96.3335 19.0977 96.3335 18.264C96.3335 17.2473 95.9268 16.4238 95.1135 15.7935C94.3205 15.1428 93.3038 14.8175 92.0635 14.8175ZM106.011 29.3355C103.49 29.3355 101.528 28.5323 100.125 26.926L101.07 25.7975C102.412 27.1598 104.069 27.841 106.042 27.841C107.241 27.841 108.238 27.5868 109.031 27.0785C109.844 26.5702 110.251 25.8483 110.251 24.913C110.251 24.5673 110.179 24.2623 110.037 23.998C109.895 23.7133 109.732 23.4897 109.549 23.327C109.386 23.1643 109.081 22.9915 108.634 22.8085C108.207 22.6255 107.861 22.4933 107.597 22.412C107.353 22.3307 106.906 22.1985 106.255 22.0155C106.072 21.9545 105.93 21.9138 105.828 21.8935C105.055 21.6698 104.435 21.4665 103.968 21.2835C103.52 21.0802 103.032 20.8158 102.504 20.4905C101.995 20.1652 101.619 19.7687 101.375 19.301C101.131 18.813 101.009 18.2538 101.009 17.6235C101.009 16.2408 101.538 15.1835 102.595 14.4515C103.652 13.7195 104.964 13.3535 106.53 13.3535C108.502 13.3535 110.2 13.9025 111.623 15.0005L110.769 16.2205C109.508 15.2852 108.095 14.8175 106.53 14.8175C105.371 14.8175 104.435 15.0615 103.724 15.5495C103.032 16.0375 102.687 16.6983 102.687 17.532C102.687 18.2843 102.992 18.8638 103.602 19.2705C104.232 19.6568 105.218 20.0432 106.56 20.4295C107.333 20.6532 107.912 20.826 108.299 20.948C108.685 21.07 109.153 21.2632 109.702 21.5275C110.271 21.7715 110.688 22.0358 110.952 22.3205C111.216 22.5848 111.45 22.9407 111.654 23.388C111.857 23.815 111.959 24.303 111.959 24.852C111.959 26.2753 111.379 27.3835 110.22 28.1765C109.061 28.9492 107.658 29.3355 106.011 29.3355ZM119.861 29.3355C117.34 29.3355 115.378 28.5323 113.975 26.926L114.92 25.7975C116.262 27.1598 117.919 27.841 119.892 27.841C121.091 27.841 122.088 27.5868 122.881 27.0785C123.694 26.5702 124.101 25.8483 124.101 24.913C124.101 24.5673 124.029 24.2623 123.887 23.998C123.745 23.7133 123.582 23.4897 123.399 23.327C123.236 23.1643 122.931 22.9915 122.484 22.8085C122.057 22.6255 121.711 22.4933 121.447 22.412C121.203 22.3307 120.756 22.1985 120.105 22.0155C119.922 21.9545 119.78 21.9138 119.678 21.8935C118.905 21.6698 118.285 21.4665 117.818 21.2835C117.37 21.0802 116.882 20.8158 116.354 20.4905C115.845 20.1652 115.469 19.7687 115.225 19.301C114.981 18.813 114.859 18.2538 114.859 17.6235C114.859 16.2408 115.388 15.1835 116.445 14.4515C117.502 13.7195 118.814 13.3535 120.38 13.3535C122.352 13.3535 124.05 13.9025 125.473 15.0005L124.619 16.2205C123.358 15.2852 121.945 14.8175 120.38 14.8175C119.221 14.8175 118.285 15.0615 117.574 15.5495C116.882 16.0375 116.537 16.6983 116.537 17.532C116.537 18.2843 116.842 18.8638 117.452 19.2705C118.082 19.6568 119.068 20.0432 120.41 20.4295C121.183 20.6532 121.762 20.826 122.149 20.948C122.535 21.07 123.003 21.2632 123.552 21.5275C124.121 21.7715 124.538 22.0358 124.802 22.3205C125.066 22.5848 125.3 22.9407 125.504 23.388C125.707 23.815 125.809 24.303 125.809 24.852C125.809 26.2753 125.229 27.3835 124.07 28.1765C122.911 28.9492 121.508 29.3355 119.861 29.3355Z" fill="white"/>
<path d="M136.5 16.5L130.5 10.5C129 9 126 11.5 127.5 13L136 21.5L136.5 16.5Z" fill="#23B58E"/>
<path d="M136.5 16.5L130.5 10.5C129 9 126 11.5 127.5 13L136 21.5L136.5 16.5Z" fill="url(#paint0_linear_3_49)"/>
<path d="M3 25L9 31C10.5 32.5 13.5 30 12 28.5L3.5 20L3 25Z" fill="#23B58E"/>
<path d="M3 25L9 31C10.5 32.5 13.5 30 12 28.5L3.5 20L3 25Z" fill="url(#paint1_linear_3_49)"/>
<path d="M0.4619 19.666L9 11C11 9 13.5 12 12 13.5C9.99999 15.5 6.1619 19.466 4.9619 20.666C3.7619 21.866 4 25 4 26L0.499996 22.5C-0.221822 21.7782 -0.0380974 20.166 0.4619 19.666Z" fill="#23B58E"/>
<path d="M0.4619 19.666L9 11C11 9 13.5 12 12 13.5C9.99999 15.5 6.1619 19.466 4.9619 20.666C3.7619 21.866 4 25 4 26L0.499996 22.5C-0.221822 21.7782 -0.0380974 20.166 0.4619 19.666Z" fill="#23B58E"/>
<path d="M139.458 22L130.458 31C128.458 33 125.958 30 127.458 28.5L134.958 21C136.065 19.8926 136 19 135.958 16L139.458 19.5C140.179 20.2218 139.958 21.5 139.458 22Z" fill="#23B58E"/>
<path d="M139.458 22L130.458 31C128.458 33 125.958 30 127.458 28.5L134.958 21C136.065 19.8926 136 19 135.958 16L139.458 19.5C140.179 20.2218 139.958 21.5 139.458 22Z" fill="#23B58E"/>
<defs>
<linearGradient id="paint0_linear_3_49" x1="128" y1="11" x2="138" y2="20.5" gradientUnits="userSpaceOnUse">
<stop stop-color="#23B58E" stop-opacity="0"/>
<stop offset="1" stop-opacity="0.5"/>
</linearGradient>
<linearGradient id="paint1_linear_3_49" x1="11.5" y1="30.5" x2="1.5" y2="21" gradientUnits="userSpaceOnUse">
<stop stop-color="#23B58E" stop-opacity="0"/>
<stop offset="1" stop-opacity="0.5"/>
</linearGradient>
</defs>
</svg>
